<?xml version="1.0" encoding="utf-8"?>
<!-- Generator: Adobe Illustrator 23.1.1, SVG Export Plug-In . SVG Version: 6.00 Build 0)  -->
<svg version="1.1" id="Layer_1" focusable="false" xmlns="http://www.w3.org/2000/svg" xmlns:xlink="http://www.w3.org/1999/xlink"
	 x="0px" y="0px" viewBox="0 0 512 512" style="enable-background:new 0 0 512 512;" xml:space="preserve">
<style type="text/css">
	.st0{fill:#41FF00;}
</style>
<path class="st0" d="M256,504c137,0,248-111,248-248S393,8,256,8S8,119,8,256S119,504,256,504z M152.6,427.3l53.4-53.4
	c31.8,13.5,68.1,13.5,100,0l53.4,53.4C296.2,465.6,215.8,465.6,152.6,427.3L152.6,427.3z M336,256c0,44.1-35.9,80-80,80
	s-80-35.9-80-80s35.9-80,80-80S336,211.9,336,256z M427.3,359.4L373.9,306c13.5-31.8,13.5-68.1,0-100l53.4-53.4
	C465.6,215.8,465.6,296.2,427.3,359.4z M359.4,84.7L306,138.1c-31.8-13.5-68.1-13.5-100,0l-53.4-53.4
	C215.8,46.4,296.2,46.4,359.4,84.7z M84.7,152.6l53.4,53.4c-13.5,31.8-13.5,68.1,0,100l-53.4,53.4C46.4,296.2,46.4,215.8,84.7,152.6
	z"/>
</svg>
