<?xml version="1.0" encoding="utf-8"?>
<!-- Generator: Adobe Illustrator 23.1.1, SVG Export Plug-In . SVG Version: 6.00 Build 0)  -->
<svg version="1.1" id="Layer_1" focusable="false" xmlns="http://www.w3.org/2000/svg" xmlns:xlink="http://www.w3.org/1999/xlink"
	 x="0px" y="0px" viewBox="0 0 512 512" style="enable-background:new 0 0 512 512;" xml:space="preserve">
<style type="text/css">
	.st0{fill:#FFFFFF;}
</style>
<g>
	<g>
		<path class="st0" d="M234.3,336.1c0,2.8-2.3,5-5,5h-17.3c-2.8,0-5-2.3-5-5v-64.7c0-2.8,0-7.3,0.1-10.1l0-2.2
			c0.1-2.8,0.2-7.3,0.3-10.1l0.1-3.4c0.1-2.8-1.5-3.4-3.4-1.5c0,0-2,2-3.4,3.2c-1.4,1.2-4.2,3.6-6.4,5.3l-7,5.6
			c-2.2,1.7-5.3,1.4-7.1-0.8l-6.9-8.6c-1.7-2.2-1.4-5.3,0.8-7.1L208,215c2.2-1.7,6.2-3.1,9-3.1h12.4c2.8,0,5,2.3,5,5V336.1z"/>
	</g>
	<path class="st0" d="M341.7,276.6c0,22.6-3.7,39.3-11.1,50.1c-7.4,10.8-18.8,16.3-34.2,16.3c-14.9,0-26.1-5.6-33.7-16.8
		c-7.6-11.2-11.4-27.7-11.4-49.6c0-22.8,3.7-39.6,11-50.4c7.4-10.8,18.7-16.2,34-16.2c14.9,0,26.2,5.7,33.8,17
		C337.9,238.3,341.7,254.8,341.7,276.6z M278.5,276.6c0,15.9,1.4,27.2,4.1,34.1c2.7,6.9,7.3,10.3,13.8,10.3c6.4,0,11-3.5,13.8-10.4
		c2.8-7,4.2-18.3,4.2-33.9c0-15.9-1.4-27.2-4.3-34.2c-2.9-6.9-7.4-10.4-13.7-10.4c-6.4,0-11,3.5-13.8,10.4
		C279.9,249.4,278.5,260.8,278.5,276.6z"/>
</g>
<path class="st0" d="M256.5,0.1C324.9,0.2,387,27.2,432.8,71l36.9-36.9c15.6-15.6,42.3-4.6,42.3,17.5v138.4
	c0,13.7-11.1,24.8-24.8,24.8H348.8c-22.1,0-33.1-26.7-17.5-42.3l43.1-43.1c-31.9-29.8-73.1-46.4-116.9-46.7
	c-95.4-0.8-175.8,76.4-175,174.9c0.8,93.5,76.6,171.9,173.4,171.9c42.5,0,82.6-15.2,114.2-42.9c4.9-4.3,12.3-4,16.9,0.6l40.9,40.9
	c5,5,4.8,13.2-0.5,18c-45.4,41-105.5,66-171.5,66c-141.4,0-256-114.6-256-256C0,114.9,115.2-0.1,256.5,0.1z"/>
</svg>
