<?xml version="1.0" encoding="utf-8"?>
<!-- Generator: Adobe Illustrator 23.1.1, SVG Export Plug-In . SVG Version: 6.00 Build 0)  -->
<svg version="1.1" id="Layer_1" focusable="false" xmlns="http://www.w3.org/2000/svg" xmlns:xlink="http://www.w3.org/1999/xlink"
	 x="0px" y="0px" viewBox="0 0 448 448" style="enable-background:new 0 0 448 448;" xml:space="preserve">
<style type="text/css">
	.st0{fill:#41FF00;}
</style>
<g>
	<path class="st0" d="M419.4,293.6l-68.6,22.5v71.9c0,2.3-1.2,4.7-3.1,6.1c-2.1,1.4-4.5,1.9-6.8,0.9L272.4,373l-42.3,58.2
		c-1.4,1.9-3.8,3.1-6.1,3.1s-4.7-1.2-6.1-3.1L175.6,373L107,395.1c-2.3,0.9-4.7,0.5-6.8-0.9c-1.9-1.4-3.1-3.8-3.1-6.1v-71.9
		l-68.6-22.5c-2.1-0.7-4-2.3-4.7-4.7c-0.7-2.3-0.5-4.9,0.9-6.8l42.3-58.3l-42.3-58.3c-1.4-2.1-1.6-4.5-0.9-6.8
		c0.7-2.3,2.6-4,4.7-4.7l68.6-22.5V59.7c0-2.3,1.2-4.7,3.1-6.1c2.1-1.4,4.5-1.9,6.8-0.9l68.6,22.1l42.3-58.2c2.8-3.8,9.4-3.8,12.2,0
		l42.3,58.2L341,52.7c2.3-0.9,4.7-0.5,6.8,0.9c1.9,1.4,3.1,3.8,3.1,6.1v71.9l68.6,22.5c2.1,0.7,4,2.3,4.7,4.7
		c0.7,2.3,0.5,4.7-0.9,6.8l-42.3,58.3l42.3,58.3c1.4,1.9,1.6,4.5,0.9,6.8C423.4,291.3,421.5,292.9,419.4,293.6z M224,88.6
		c-74.7,0-135.3,60.6-135.3,135.3S149.3,359.2,224,359.2s135.3-60.6,135.3-135.3S298.7,88.6,224,88.6z"/>
</g>
</svg>
